<svg xmlns="http://www.w3.org/2000/svg" version="1.1" xmlns:xlink="http://www.w3.org/1999/xlink" xmlns:svgjs="http://svgjs.dev/svgjs" width="2000" height="1070" viewBox="0 0 2000 1070"><g transform="matrix(1,0,0,1,-1.2121212121212466,-1.0374279873576597)"><svg viewBox="0 0 396 212" data-background-color="#ffffff" preserveAspectRatio="xMidYMid meet" height="1070" width="2000" xmlns="http://www.w3.org/2000/svg" xmlns:xlink="http://www.w3.org/1999/xlink"><g id="tight-bounds" transform="matrix(1,0,0,1,0.2400000000000091,0.20554647973816031)"><svg viewBox="0 0 395.52 211.58890704052368" height="211.58890704052368" width="395.52"><g><svg viewBox="0 0 395.52 211.58890704052368" height="211.58890704052368" width="395.52"><g transform="matrix(1,0,0,1,0,139.20526911231505)"><svg viewBox="0 0 395.52 72.38363792820864" height="72.38363792820864" width="395.52"><g id="textblocktransform"><svg viewBox="0 0 395.52 72.38363792820864" height="72.38363792820864" width="395.52" id="textblock"><g><svg viewBox="0 0 395.52 72.38363792820864" height="72.38363792820864" width="395.52"><g transform="matrix(1,0,0,1,0,0)"><svg width="395.52" viewBox="-0.900073328237844 -32.5430313671875 239.37807546517715 43.808300780174775" height="72.38363792820864" data-palette-color="#5660e9"><path d="M4.016 9.74v0c-0.032-0.197 0.071-0.393 0.31-0.588 0.24-0.188 0.524-0.369 0.854-0.544 0.324-0.168 0.659-0.33 1.004-0.487 0.346-0.158 0.593-0.299 0.742-0.425v0l-4.404-27.064c-0.181-0.072-0.459-0.121-0.834-0.148-0.375-0.02-0.744-0.068-1.108-0.144-0.37-0.075-0.699-0.167-0.987-0.275-0.287-0.102-0.446-0.252-0.478-0.449v0c-0.032-0.197-0.013-0.454 0.057-0.769 0.064-0.314 0.293-0.504 0.688-0.568v0l8.498-1.383c0.592-0.096 1.042-0.028 1.351 0.206 0.309 0.24 0.477 0.442 0.504 0.607v0c0.064 0.395-0.066 0.693-0.392 0.894-0.318 0.207-0.682 0.395-1.093 0.563-0.412 0.168-0.797 0.356-1.155 0.563-0.35 0.212-0.51 0.519-0.479 0.919v0l1.793 11.015 15.506-2.523-1.913-11.755c-0.181-0.072-0.459-0.121-0.835-0.148-0.375-0.02-0.747-0.068-1.117-0.143-0.364-0.076-0.689-0.168-0.977-0.276-0.287-0.102-0.446-0.252-0.478-0.449v0c-0.032-0.197-0.016-0.453 0.047-0.768 0.07-0.315 0.303-0.505 0.698-0.569v0l8.488-1.381c0.592-0.096 1.042-0.028 1.351 0.205 0.309 0.24 0.477 0.442 0.504 0.607v0c0.07 0.428-0.066 0.737-0.407 0.928-0.341 0.19-0.725 0.361-1.153 0.511-0.434 0.158-0.817 0.356-1.149 0.593-0.332 0.243-0.458 0.611-0.378 1.105v0l4.098 25.189c0.08 0.494 0.316 0.8 0.707 0.918 0.392 0.125 0.818 0.191 1.278 0.197 0.455 0.014 0.874 0.057 1.257 0.13 0.383 0.073 0.61 0.323 0.68 0.751v0c0.027 0.165-0.069 0.406-0.287 0.725-0.217 0.326-0.622 0.537-1.214 0.633v0l-8.489 1.381c-0.395 0.064-0.676-0.042-0.842-0.318-0.16-0.278-0.256-0.516-0.288-0.713v0c-0.032-0.197 0.071-0.393 0.31-0.588 0.24-0.188 0.521-0.368 0.843-0.542 0.331-0.169 0.669-0.332 1.015-0.49 0.346-0.158 0.593-0.299 0.741-0.424v0l-2.073-12.743c-0.187 0.098-0.329 0.155-0.428 0.171v0l-15.062 2.451 1.905 11.706c0.08 0.494 0.316 0.8 0.706 0.918 0.392 0.125 0.815 0.192 1.269 0.199 0.461 0.013 0.884 0.055 1.267 0.129 0.383 0.073 0.61 0.323 0.679 0.75v0c0.027 0.165-0.069 0.406-0.287 0.726-0.217 0.326-0.622 0.537-1.214 0.633v0l-8.498 1.383c-0.395 0.064-0.672-0.043-0.833-0.321-0.167-0.277-0.266-0.514-0.298-0.711zM37.768-4.952v0c-0.192-1.689-0.129-3.357 0.187-5.003 0.317-1.646 0.901-3.148 1.754-4.506 0.852-1.358 1.985-2.493 3.398-3.404 1.406-0.918 3.085-1.487 5.039-1.709v0c1.789-0.203 3.361-0.029 4.719 0.522 1.357 0.551 2.497 1.337 3.418 2.36 0.921 1.023 1.642 2.199 2.161 3.529 0.521 1.337 0.858 2.684 1.012 4.041v0c0.09 0.795 0.121 1.657 0.092 2.587-0.03 0.923-0.143 1.848-0.339 2.775-0.196 0.935-0.49 1.834-0.882 2.697-0.385 0.869-0.909 1.66-1.573 2.372v0c-0.951 1.081-2.134 1.953-3.548 2.617-1.421 0.664-2.877 1.081-4.367 1.25v0c-1.358 0.154-2.659 0.067-3.904-0.262-1.252-0.328-2.368-0.916-3.35-1.764-0.988-0.841-1.815-1.928-2.483-3.261-0.675-1.339-1.12-2.953-1.334-4.841zM42.097-7.153v0c0.135 1.192 0.399 2.397 0.792 3.613 0.393 1.217 0.928 2.297 1.606 3.24 0.678 0.95 1.541 1.701 2.59 2.253 1.055 0.551 2.295 0.746 3.719 0.584v0c0.994-0.113 1.803-0.456 2.43-1.03 0.619-0.573 1.097-1.299 1.434-2.175 0.337-0.877 0.537-1.859 0.602-2.947 0.059-1.08 0.024-2.183-0.104-3.309v0c-0.139-1.225-0.404-2.47-0.795-3.734-0.398-1.263-0.945-2.385-1.64-3.367-0.701-0.974-1.56-1.749-2.578-2.324-1.025-0.575-2.249-0.782-3.674-0.621v0c-0.994 0.113-1.808 0.473-2.443 1.083-0.635 0.615-1.111 1.384-1.43 2.305-0.311 0.928-0.504 1.949-0.578 3.065-0.081 1.116-0.058 2.237 0.069 3.364zM64.49 1.783v0c-0.01-0.166 0.091-0.333 0.301-0.499 0.204-0.159 0.453-0.314 0.744-0.464 0.292-0.151 0.584-0.294 0.877-0.432 0.293-0.131 0.504-0.233 0.633-0.307v0l-0.959-16.432c-0.673-0.094-1.368-0.271-2.084-0.53-0.716-0.259-1.081-0.505-1.095-0.737v0c-0.02-0.339 0.16-0.694 0.539-1.063 0.379-0.376 0.853-0.714 1.423-1.015 0.563-0.3 1.173-0.559 1.828-0.778 0.655-0.225 1.235-0.353 1.741-0.382v0c0.732-0.043 1.141 0.1 1.227 0.43v0l0.149 2.555c1.141-1.042 2.38-1.952 3.717-2.731 1.344-0.78 2.831-1.217 4.461-1.312v0c1.364-0.08 2.586 0.093 3.667 0.517 1.079 0.418 1.976 1.31 2.69 2.678v0c1.108-1.04 2.324-1.949 3.648-2.727 1.324-0.778 2.734-1.211 4.231-1.298v0c1.065-0.062 2.089 0.038 3.073 0.301 0.99 0.256 1.81 0.799 2.459 1.63v0c0.65 0.837 1.067 1.684 1.25 2.541 0.184 0.857 0.3 1.702 0.348 2.534v0l0.755 12.938c0.025 0.433 0.215 0.712 0.57 0.838 0.362 0.132 0.752 0.237 1.17 0.313 0.425 0.075 0.815 0.17 1.169 0.282 0.36 0.113 0.552 0.368 0.575 0.768v0c0.01 0.166-0.11 0.397-0.36 0.692-0.25 0.302-0.674 0.47-1.273 0.505v0l-7.497 0.437c-0.399 0.023-0.662-0.078-0.789-0.304-0.133-0.226-0.206-0.439-0.218-0.638v0c-0.01-0.166 0.091-0.333 0.302-0.499 0.204-0.159 0.446-0.313 0.724-0.463 0.272-0.149 0.547-0.292 0.826-0.429 0.273-0.129 0.474-0.231 0.604-0.305v0l-0.744-11.887c-0.169-2.327-0.671-3.951-1.506-4.871-0.842-0.926-1.912-1.351-3.21-1.275v0c-0.865 0.05-1.781 0.258-2.748 0.621-0.961 0.357-1.704 0.901-2.229 1.633v0l-0.473 0.478c0.141 0.693 0.229 1.356 0.266 1.988v0l0.743 12.738c0.029 0.499 0.222 0.828 0.579 0.988 0.364 0.166 0.755 0.287 1.173 0.363 0.425 0.075 0.815 0.17 1.168 0.282 0.36 0.113 0.552 0.368 0.576 0.768v0c0.01 0.166-0.11 0.397-0.36 0.692-0.25 0.302-0.674 0.47-1.273 0.505v0l-7.547 0.44c-0.399 0.023-0.662-0.078-0.789-0.304-0.133-0.226-0.206-0.439-0.218-0.639v0c-0.01-0.166 0.091-0.333 0.302-0.498 0.204-0.159 0.446-0.313 0.724-0.463 0.272-0.149 0.547-0.292 0.826-0.429 0.273-0.129 0.474-0.231 0.604-0.306v0l-0.694-11.889c-0.136-2.329-0.665-3.951-1.586-4.866-0.922-0.921-2.032-1.344-3.33-1.269v0c-0.998 0.058-2.018 0.321-3.059 0.79-1.042 0.461-1.923 1.097-2.643 1.907v0l0.812 14.788c0.029 0.499 0.222 0.828 0.579 0.988 0.364 0.166 0.765 0.286 1.203 0.36 0.438 0.075 0.835 0.168 1.188 0.282 0.36 0.113 0.552 0.368 0.576 0.767v0c0.043 0.732-0.502 1.131-1.633 1.198v0l-7.697 0.449c-0.399 0.023-0.662-0.078-0.789-0.305-0.133-0.226-0.206-0.439-0.217-0.638zM105.302-9.564v0c-0.017-1.933 0.235-3.735 0.753-5.406 0.519-1.671 1.267-3.128 2.243-4.37 0.969-1.248 2.161-2.235 3.575-2.96 1.414-0.732 2.987-1.106 4.72-1.121v0c1.9-0.016 3.42 0.347 4.56 1.091 1.14 0.737 2.025 1.689 2.654 2.857 0.63 1.161 1.051 2.431 1.263 3.81 0.212 1.385 0.34 2.727 0.385 4.027v0c0.004 0.5-0.21 0.785-0.643 0.855-0.433 0.07-0.886 0.108-1.359 0.112v0l-13.56 0.116c0.076 1.133 0.262 2.231 0.559 3.295 0.296 1.071 0.721 2.021 1.274 2.85 0.56 0.829 1.266 1.496 2.117 2.001 0.858 0.513 1.853 0.764 2.987 0.755v0c1.233-0.011 2.232-0.112 2.997-0.306 0.765-0.187 1.397-0.392 1.895-0.616 0.498-0.218 0.923-0.421 1.275-0.611 0.345-0.183 0.718-0.276 1.118-0.28v0c0.473-0.004 0.712 0.177 0.714 0.544v0c0.004 0.433-0.246 0.892-0.748 1.377-0.496 0.491-1.165 0.947-2.008 1.367-0.85 0.427-1.83 0.772-2.942 1.035-1.118 0.256-2.293 0.39-3.526 0.4v0c-1.767 0.015-3.296-0.272-4.588-0.86-1.292-0.589-2.359-1.38-3.2-2.373-0.842-0.993-1.468-2.147-1.88-3.464-0.411-1.317-0.623-2.691-0.635-4.125zM109.874-12.803l10.607-0.441c-0.042-1.033-0.134-2.009-0.275-2.928-0.141-0.912-0.398-1.7-0.771-2.363-0.372-0.663-0.91-1.192-1.613-1.586-0.703-0.401-1.622-0.596-2.755-0.587v0c-1.667 0.014-2.92 0.768-3.761 2.263-0.841 1.494-1.318 3.375-1.432 5.642zM138.221 1.465l-9.603-31.224c-0.13-0.073-0.342-0.167-0.637-0.282-0.295-0.114-0.589-0.246-0.882-0.393-0.293-0.148-0.553-0.304-0.778-0.468-0.226-0.158-0.335-0.32-0.327-0.487v0c0.01-0.2 0.078-0.447 0.206-0.741 0.134-0.294 0.401-0.431 0.801-0.411v0l8.45 0.411c0.599 0.029 1.025 0.19 1.278 0.483 0.252 0.299 0.375 0.532 0.367 0.699v0c-0.016 0.333-0.205 0.574-0.566 0.723-0.354 0.15-0.744 0.271-1.169 0.363-0.425 0.099-0.831 0.213-1.218 0.342-0.394 0.134-0.648 0.349-0.762 0.643v0l6.944 24.137 7.063-18.599-1.533-5.531c-0.163-0.075-0.409-0.17-0.737-0.286-0.328-0.116-0.655-0.249-0.982-0.398-0.326-0.149-0.609-0.307-0.848-0.472-0.246-0.159-0.364-0.338-0.354-0.538v0c0.01-0.2 0.082-0.447 0.216-0.74 0.128-0.294 0.391-0.431 0.791-0.412v0l9.05 0.44c0.599 0.029 1.025 0.19 1.278 0.483 0.252 0.299 0.375 0.532 0.366 0.699v0c-0.016 0.333-0.11 0.552-0.282 0.657-0.172 0.112-0.41 0.194-0.713 0.245v0c-1.14 0.111-1.895 0.198-2.265 0.26-0.37 0.069-0.667 0.331-0.89 0.788v0l6.26 23.602 8.258-23.396c-0.195-0.11-0.49-0.224-0.885-0.343-0.395-0.119-0.782-0.248-1.162-0.387-0.381-0.132-0.717-0.282-1.01-0.45-0.293-0.161-0.434-0.342-0.424-0.541v0c0.01-0.2 0.082-0.447 0.216-0.74 0.128-0.294 0.391-0.431 0.791-0.412v0l7.801 0.379c0.599 0.029 0.992 0.188 1.178 0.478 0.186 0.296 0.275 0.527 0.267 0.694v0c-0.016 0.333-0.11 0.552-0.282 0.657-0.172 0.112-0.41 0.194-0.713 0.246v0c-0.371 0.082-0.681 0.14-0.93 0.175-0.256 0.041-0.479 0.107-0.67 0.197-0.185 0.091-0.348 0.217-0.489 0.377-0.141 0.16-0.304 0.419-0.489 0.777v0l-11.543 29.193-2.097-0.102-5.797-20.766-8.496 20.07zM169.842-8.096v0c0.157-1.693 0.559-3.313 1.205-4.86 0.646-1.547 1.525-2.898 2.636-4.053 1.112-1.155 2.452-2.035 4.021-2.64 1.563-0.611 3.324-0.826 5.283-0.644v0c1.792 0.167 3.297 0.658 4.513 1.474 1.216 0.816 2.171 1.819 2.864 3.008 0.693 1.189 1.158 2.488 1.395 3.896 0.237 1.415 0.292 2.802 0.166 4.163v0c-0.074 0.797-0.22 1.647-0.438 2.551-0.217 0.897-0.517 1.78-0.899 2.648-0.383 0.875-0.854 1.695-1.414 2.46-0.554 0.772-1.228 1.439-2.024 2.001v0c-1.152 0.864-2.487 1.476-4.007 1.837-1.527 0.36-3.037 0.471-4.53 0.332v0c-1.361-0.126-2.617-0.478-3.769-1.053-1.158-0.576-2.131-1.38-2.919-2.41-0.795-1.025-1.384-2.258-1.765-3.7-0.388-1.449-0.494-3.119-0.318-5.01zM174.53-9.368v0c-0.111 1.195-0.098 2.428 0.037 3.699 0.136 1.271 0.44 2.438 0.911 3.499 0.47 1.068 1.162 1.979 2.076 2.734 0.921 0.755 2.095 1.199 3.522 1.332v0c0.996 0.093 1.859-0.078 2.588-0.513 0.723-0.435 1.339-1.047 1.848-1.837 0.509-0.79 0.905-1.71 1.191-2.762 0.278-1.045 0.469-2.132 0.574-3.26v0c0.114-1.228 0.108-2.501-0.017-3.818-0.132-1.318-0.438-2.528-0.918-3.631-0.487-1.096-1.171-2.03-2.05-2.801-0.886-0.772-2.042-1.224-3.469-1.357v0c-0.996-0.093-1.867 0.094-2.613 0.56-0.747 0.473-1.37 1.128-1.87 1.966-0.494 0.845-0.891 1.805-1.192 2.882-0.308 1.076-0.514 2.178-0.618 3.307zM194.56 3.906v0c0.022-0.165 0.151-0.31 0.39-0.433 0.231-0.118 0.503-0.223 0.818-0.316 0.315-0.093 0.629-0.18 0.941-0.26 0.312-0.073 0.539-0.135 0.68-0.184v0l2.138-16.32c-0.644-0.219-1.293-0.522-1.948-0.911-0.655-0.388-0.968-0.698-0.938-0.929v0c0.044-0.337 0.287-0.652 0.729-0.944 0.443-0.298 0.972-0.542 1.588-0.73 0.61-0.189 1.257-0.33 1.941-0.421 0.685-0.099 1.279-0.115 1.782-0.049v0c0.264 0.035 0.508 0.1 0.731 0.196 0.223 0.096 0.354 0.248 0.394 0.455v0l-0.605 4.621c0.898-1.462 1.97-2.67 3.217-3.623 1.253-0.945 2.624-1.32 4.111-1.125v0c0.297 0.039 0.664 0.137 1.101 0.295 0.43 0.157 0.851 0.407 1.264 0.75 0.407 0.336 0.736 0.772 0.988 1.31 0.246 0.536 0.318 1.188 0.218 1.955v0c-0.039 0.297-0.176 0.572-0.411 0.823-0.236 0.258-0.516 0.474-0.841 0.647-0.326 0.179-0.67 0.319-1.033 0.419-0.37 0.106-0.723 0.154-1.058 0.144v0c-0.264-0.035-0.478-0.123-0.64-0.266-0.17-0.137-0.258-0.441-0.264-0.912v0c-0.066-0.782-0.239-1.309-0.519-1.58-0.287-0.273-0.744-0.451-1.373-0.533v0c-0.463-0.061-0.956 0.11-1.479 0.512-0.523 0.402-1.021 0.915-1.492 1.539-0.466 0.631-0.873 1.301-1.222 2.009-0.342 0.715-0.55 1.353-0.624 1.915v0l-1.345 10.272c-0.061 0.463 0.147 0.799 0.624 1.01 0.476 0.217 0.996 0.403 1.561 0.557 0.57 0.162 1.084 0.347 1.541 0.555 0.463 0.215 0.666 0.538 0.609 0.967v0c-0.095 0.727-0.705 1.017-1.828 0.87v0l-8.934-1.17c-0.397-0.052-0.636-0.201-0.718-0.447-0.089-0.247-0.12-0.47-0.094-0.668zM212.78 6.353v0c0.028-0.164 0.163-0.304 0.405-0.418 0.235-0.109 0.511-0.205 0.829-0.287 0.318-0.082 0.635-0.157 0.951-0.226 0.315-0.062 0.543-0.115 0.685-0.158v0l5.043-29.999c-0.707-0.22-1.273-0.468-1.701-0.742-0.427-0.275-0.624-0.51-0.591-0.708v0c0.078-0.467 0.33-0.8 0.756-0.999 0.419-0.2 0.932-0.334 1.538-0.4 0.6-0.068 1.225-0.071 1.877-0.009 0.647 0.055 1.216 0.123 1.71 0.206v0c0.27 0.045 0.507 0.102 0.712 0.17 0.211 0.069 0.331 0.225 0.357 0.466v0l-4.081 24.279 9.908-7.968c-0.284-0.122-0.602-0.236-0.956-0.343-0.353-0.113-0.669-0.244-0.948-0.392-0.279-0.148-0.516-0.306-0.711-0.475-0.188-0.167-0.269-0.332-0.241-0.497v0c0.033-0.197 0.161-0.412 0.382-0.645 0.228-0.232 0.523-0.318 0.885-0.257v0l7.455 1.253c0.559 0.094 0.943 0.219 1.154 0.376 0.211 0.15 0.303 0.308 0.275 0.473v0c-0.094 0.559-0.425 0.919-0.993 1.08-0.567 0.155-1.169 0.216-1.805 0.183v0l-7.3 5.06 5.54 12.349c0.159 0.263 0.447 0.498 0.865 0.704 0.425 0.207 0.848 0.403 1.27 0.588 0.427 0.193 0.8 0.391 1.118 0.594 0.323 0.21 0.457 0.479 0.401 0.807v0c-0.028 0.164-0.196 0.362-0.505 0.595-0.31 0.238-0.762 0.308-1.354 0.208v0l-7.997-1.344c-0.394-0.066-0.628-0.224-0.702-0.473-0.08-0.25-0.103-0.474-0.069-0.671v0c0.05-0.296 0.283-0.476 0.699-0.541v0l1.587-0.392-4.177-10.143-4.319 3.076-0.69 4.103c-0.083 0.493 0.032 0.857 0.344 1.092 0.318 0.243 0.682 0.449 1.092 0.62 0.411 0.17 0.776 0.35 1.096 0.539 0.326 0.19 0.456 0.482 0.39 0.877v0c-0.122 0.723-0.741 0.991-1.859 0.803v0l-7.554-1.27c-0.394-0.066-0.628-0.224-0.701-0.473-0.08-0.25-0.103-0.474-0.07-0.671z" opacity="1" transform="matrix(1,0,0,1,0,0)" fill="#5660e9" class="wordmark-text-0" data-fill-palette-color="primary" id="text-0"></path></svg></g></svg></g></svg></g></svg></g><g transform="matrix(1,0,0,1,136.8827160780985,0)"><svg viewBox="0 0 121.754567843803 117.11672616784158" height="117.11672616784158" width="121.754567843803"><g><svg xmlns="http://www.w3.org/2000/svg" xmlns:xlink="http://www.w3.org/1999/xlink" version="1.1" x="0" y="0" viewBox="14.17879318266905 143.8 570.3212068173309 548.5966874953508" style="enable-background:new 0 124.9 595.3 592;" xml:space="preserve" height="117.11672616784158" width="121.754567843803" class="icon-icon-0" data-fill-palette-color="accent" id="icon-0"><path d="M136 214.2h48.1c7.7 0 14-6.3 14-14s-6.3-14-14-14H136c-7.7 0-14 6.3-14 14C121.9 207.9 128.2 214.2 136 214.2z" fill="#4d4abd" data-fill-palette-color="accent"></path><path d="M136 271.1h48.1c7.7 0 14-6.3 14-14 0-7.7-6.3-14-14-14H136c-7.7 0-14 6.3-14 14C122 264.8 128.2 271.1 136 271.1z" fill="#4d4abd" data-fill-palette-color="accent"></path><g fill="#4d4abd" data-fill-palette-color="accent"><rect x="448.1" y="241.4" transform="matrix(0.9541 0.2996 -0.2996 0.9541 143.7655 -125.0114)" width="63" height="329.8" fill="#4d4abd" data-fill-palette-color="accent"></rect><polygon points="407.5,635.3 457.6,577.6 399.3,559.3  " fill="#4d4abd" data-fill-palette-color="accent"></polygon><path d="M539.9 371l11.9-19.7 32.7-103.5-20.1-6.3 5.1-16.1-15.7-4.9 8-25.4-28.6-9-8 25.4-15.7-4.9-8.9 28.2 60.1 18.9 0.5-1.5 9.5 3-28.6 91.1L529 367.5l-2.5 28c-0.2 2.6 1.4 5 3.9 5.8 0.4 0.1 0.8 0.2 1.2 0.2 3.1 0.3 5.8-2 6-5.1L539.9 371z" fill="#4d4abd" data-fill-palette-color="accent"></path></g><path d="M211.7 285.3l-183.5 69c-11.8 4.4-17.2 19.2-12.1 32.9L124 674.3c5.1 13.7 19 21.3 30.8 16.8l183.5-69c11.8-4.4 17.2-19.2 12.1-32.9l-108-287.1C237.3 288.4 223.4 280.8 211.7 285.3zM115.6 575.2c-1.2-3.1 0.1-6.4 2.7-7.4l22.2-8.4c2.7-1 5.8 0.7 7 3.8l9.7 25.7c1.2 3.1-0.1 6.4-2.7 7.4l-22.2 8.4c-2.7 1-5.8-0.7-7-3.8L115.6 575.2zM178.5 644.8c1.2 3.1-0.1 6.4-2.7 7.4l-22.2 8.4c-2.7 1-5.8-0.7-7-3.8l-9.7-25.7c-1.2-3.1 0.1-6.4 2.7-7.4l22.2-8.4c2.7-1 5.8 0.7 7 3.8L178.5 644.8zM136.3 532.5c1.2 3.1-0.1 6.4-2.7 7.4l-22.2 8.4c-2.7 1-5.8-0.7-7-3.8l-9.7-25.7c-1.2-3.1 0.1-6.4 2.7-7.4l22.2-8.4c2.7-1 5.8 0.7 7 3.8L136.3 532.5zM115.7 476.9c1.2 3.1-0.1 6.4-2.7 7.4l-22.2 8.4c-2.7 1-5.8-0.7-7-3.8l-9.7-25.7c-1.2-3.1 0.1-6.4 2.7-7.4l22.2-8.4c2.7-1 5.8 0.7 7 3.8L115.7 476.9zM227.3 626.4c1.2 3.1-0.1 6.4-2.7 7.4l-22.2 8.4c-2.7 1-5.8-0.7-7-3.8l-9.7-25.7c-1.2-3.1 0.1-6.4 2.7-7.4l22.2-8.4c2.7-1 5.8 0.7 7 3.8L227.3 626.4zM174.1 582.6l-9.7-25.7c-1.2-3.1 0.1-6.4 2.7-7.4l22.2-8.4c2.7-1 5.8 0.7 7 3.8l9.7 25.7c1.2 3.1-0.1 6.4-2.7 7.4l-22.2 8.4C178.4 587.4 175.3 585.7 174.1 582.6zM185.1 514.1c1.2 3.1-0.1 6.4-2.7 7.4l-22.2 8.4c-2.7 1-5.8-0.7-7-3.8l-9.7-25.7c-1.2-3.1 0.1-6.4 2.7-7.4l22.2-8.4c2.7-1 5.8 0.7 7 3.8L185.1 514.1zM164.5 458.5c1.2 3.1-0.1 6.4-2.7 7.4l-22.2 8.4c-2.7 1-5.8-0.7-7-3.8l-9.7-25.7c-1.2-3.1 0.1-6.4 2.7-7.4l22.2-8.4c2.7-1 5.8 0.7 7 3.8L164.5 458.5zM275.3 608.3c1.2 3.1-0.1 6.4-2.7 7.4l-22.2 8.4c-2.7 1-5.8-0.7-7-3.8l-9.7-25.7c-1.2-3.1 0.1-6.4 2.7-7.4l22.2-8.4c2.7-1 5.8 0.7 7 3.8L275.3 608.3zM222.1 564.5l-9.7-25.7c-1.2-3.1 0.1-6.4 2.7-7.4l22.2-8.4c2.7-1 5.8 0.7 7 3.8l9.7 25.7c1.2 3.1-0.1 6.4-2.7 7.4l-22.2 8.4C226.4 569.3 223.3 567.6 222.1 564.5zM233.1 496.1c1.2 3.1-0.1 6.4-2.7 7.4l-22.2 8.4c-2.7 1-5.8-0.7-7-3.8l-9.7-25.7c-1.2-3.1 0.1-6.4 2.7-7.4l22.2-8.4c2.7-1 5.8 0.7 7 3.8L233.1 496.1zM212.5 440.5c1.2 3.1-0.1 6.4-2.7 7.4l-22.2 8.4c-2.7 1-5.8-0.7-7-3.8l-9.7-25.7c-1.2-3.1 0.1-6.4 2.7-7.4l22.2-8.4c2.7-1 5.8 0.7 7 3.8L212.5 440.5zM323.6 590.2c1.2 3.1-0.1 6.4-2.7 7.4l-22.2 8.4c-2.7 1-5.8-0.7-7-3.8L261 520.5c-1.2-3.1 0.1-6.4 2.7-7.4l22.2-8.4c2.7-1 5.8 0.7 7 3.8L323.6 590.2zM281.7 477.8c1.2 3.1-0.1 6.4-2.7 7.4l-22.2 8.4c-2.7 1-5.8-0.7-7-3.8l-9.7-25.7c-1.2-3.1 0.1-6.4 2.7-7.4l22.2-8.4c2.7-1 5.8 0.7 7 3.8L281.7 477.8zM261.1 422.2c1.2 3.1-0.1 6.4-2.7 7.4l-22.2 8.4c-2.7 1-5.8-0.7-7-3.8l-9.7-25.7c-1.2-3.1 0.1-6.4 2.7-7.4l22.2-8.4c2.7-1 5.8 0.7 7 3.8L261.1 422.2zM234.8 352.3c3 8-0.2 16.7-7.1 19.3L75.5 428.8c-6.9 2.6-15-1.8-18-9.9l-10.6-28.3c-3-8 0.2-16.7 7.1-19.3l152.3-57.2c6.9-2.6 15 1.8 18 9.9L234.8 352.3z" fill="#4d4abd" data-fill-palette-color="accent"></path><g fill="#4d4abd" data-fill-palette-color="accent"><path d="M469.8 143.8h-275c-19.2 0-34.8 15.6-34.8 34.8v5h24.5c9.1 0 16.5 7.4 16.5 16.5 0 9.1-7.4 16.5-16.5 16.5H160v24h24.5c9.1 0 16.5 7.4 16.5 16.5 0 9.1-7.4 16.5-16.5 16.5H160v20.5l20-7.6c1.3-0.5 2.5-0.9 3.8-1.2l30.8-11.6c13.7-5.1 29.1 1.8 34.2 15.5 0 0 114.1 303.8 115.8 310.2h31.8l-6.3-43.7 114.3-364 0.2 0.1v-13.2C504.6 159.4 489.1 143.8 469.8 143.8zM424.5 247.9c0 10.4-8.5 19-19 19H259.2c-10.4 0-19-8.5-19-19v-53c0-10.4 8.5-19 19-19h146.3c10.4 0 19 8.5 19 19V247.9z" fill="#4d4abd" data-fill-palette-color="accent"></path></g></svg></g></svg></g><g></g></svg></g><defs></defs></svg><rect width="395.52" height="211.58890704052368" fill="none" stroke="none" visibility="hidden"></rect></g></svg></g></svg>